<mxfile host="app.diagrams.net" modified="2022-07-22T09:24:19.191Z" agent="5.0 (Macintosh; Intel Mac OS X 10_15_7) AppleWebKit/537.36 (KHTML, like Gecko) Chrome/103.0.0.0 Safari/537.36" etag="X9LYGi1O4nsSx1a2Yr2a" version="20.0.4" type="github">
  <diagram id="Xgjw-bTrBR89xsVsMBI_" name="第 1 页">
    <mxGraphModel dx="788" dy="512" grid="1" gridSize="10" guides="1" tooltips="1" connect="1" arrows="1" fold="1" page="1" pageScale="1" pageWidth="827" pageHeight="1169" math="0" shadow="0">
      <root>
        <mxCell id="0" />
        <mxCell id="1" parent="0" />
        <mxCell id="UnXfXx3QPJENvj_b73Ka-1" value="" style="rounded=0;whiteSpace=wrap;html=1;fillColor=#d5e8d4;strokeColor=#82b366;" vertex="1" parent="1">
          <mxGeometry x="50" y="130" width="140" height="280" as="geometry" />
        </mxCell>
        <mxCell id="UnXfXx3QPJENvj_b73Ka-2" value="A" style="rounded=1;whiteSpace=wrap;html=1;" vertex="1" parent="1">
          <mxGeometry x="60" y="352" width="120" height="40" as="geometry" />
        </mxCell>
        <mxCell id="UnXfXx3QPJENvj_b73Ka-3" value="B" style="rounded=1;whiteSpace=wrap;html=1;" vertex="1" parent="1">
          <mxGeometry x="60" y="290" width="120" height="40" as="geometry" />
        </mxCell>
        <mxCell id="UnXfXx3QPJENvj_b73Ka-4" value="C" style="rounded=1;whiteSpace=wrap;html=1;" vertex="1" parent="1">
          <mxGeometry x="60" y="229" width="120" height="40" as="geometry" />
        </mxCell>
        <mxCell id="UnXfXx3QPJENvj_b73Ka-5" value="D" style="rounded=1;whiteSpace=wrap;html=1;" vertex="1" parent="1">
          <mxGeometry x="60" y="160" width="120" height="40" as="geometry" />
        </mxCell>
        <mxCell id="UnXfXx3QPJENvj_b73Ka-7" value="" style="rounded=0;whiteSpace=wrap;html=1;fillColor=#d5e8d4;strokeColor=#82b366;" vertex="1" parent="1">
          <mxGeometry x="310" y="130" width="140" height="280" as="geometry" />
        </mxCell>
        <mxCell id="UnXfXx3QPJENvj_b73Ka-8" value="A" style="rounded=1;whiteSpace=wrap;html=1;" vertex="1" parent="1">
          <mxGeometry x="320" y="352" width="120" height="40" as="geometry" />
        </mxCell>
        <mxCell id="UnXfXx3QPJENvj_b73Ka-9" value="B" style="rounded=1;whiteSpace=wrap;html=1;" vertex="1" parent="1">
          <mxGeometry x="320" y="290" width="120" height="40" as="geometry" />
        </mxCell>
        <mxCell id="UnXfXx3QPJENvj_b73Ka-10" value="D" style="rounded=1;whiteSpace=wrap;html=1;" vertex="1" parent="1">
          <mxGeometry x="320" y="229" width="120" height="40" as="geometry" />
        </mxCell>
        <mxCell id="UnXfXx3QPJENvj_b73Ka-11" value="C" style="rounded=1;whiteSpace=wrap;html=1;" vertex="1" parent="1">
          <mxGeometry x="320" y="160" width="120" height="40" as="geometry" />
        </mxCell>
        <mxCell id="UnXfXx3QPJENvj_b73Ka-12" value="" style="rounded=0;whiteSpace=wrap;html=1;fillColor=#d5e8d4;strokeColor=#82b366;" vertex="1" parent="1">
          <mxGeometry x="550" y="130" width="140" height="280" as="geometry" />
        </mxCell>
        <mxCell id="UnXfXx3QPJENvj_b73Ka-13" value="B" style="rounded=1;whiteSpace=wrap;html=1;" vertex="1" parent="1">
          <mxGeometry x="560" y="352" width="120" height="40" as="geometry" />
        </mxCell>
        <mxCell id="UnXfXx3QPJENvj_b73Ka-14" value="D" style="rounded=1;whiteSpace=wrap;html=1;" vertex="1" parent="1">
          <mxGeometry x="560" y="290" width="120" height="40" as="geometry" />
        </mxCell>
        <mxCell id="UnXfXx3QPJENvj_b73Ka-15" value="C" style="rounded=1;whiteSpace=wrap;html=1;" vertex="1" parent="1">
          <mxGeometry x="560" y="229" width="120" height="40" as="geometry" />
        </mxCell>
        <mxCell id="UnXfXx3QPJENvj_b73Ka-16" value="E" style="rounded=1;whiteSpace=wrap;html=1;" vertex="1" parent="1">
          <mxGeometry x="560" y="160" width="120" height="40" as="geometry" />
        </mxCell>
        <mxCell id="UnXfXx3QPJENvj_b73Ka-18" value="" style="shape=stencil(lVjZbtswEPwavy54Lcl9TtP/CBCnMeragZP0+PuuYZAOl9IYfpOtGYl7cGbFTXx4f316226Ce/84HX9u/+yeP1438dsmhN3hdXvafejVJj5u4sPL8bT9cTp+Hp4vv9+ezsjz1a/j7/MT/l54jpw7k4L7d/nDu/7X9wthvzsMhMB3ETydb91BCJTGJYlQSuv4SJ4t3vl1fKJUR3wlL+v4TN6P+EIOrKeQjAELE+d1vFCNIz5SYZBQT2IInjII2Cfy44qqUESETNEQMlUQsq+UDCFRrKDGbiJoVGBJ2hVxDLoIDFrL7Ma2KIUiajumXEYCkwd100L7sVFLJBcBobY+7gTfFrlM0BDHVs3a2iCt0VEd05pL695lgmZ9DDozzFLUEM0bYmuWZYLWIY8ET4yWxHa/sVBBS8qtTJ1Q2zuXCcXuB86U0JJUIMYscaJSAEGs6LGqFGiNpLJq3uCbTC0TvN2iSeAWTSqrY5YSlr0UW9Y7IcM9nbjJYickmFZ9HpslhZaGZUJfcSc4mFae7E1rXxHBUx2bT9sxgl7SupodFwNVkFZmaw+6aQN6w+QnKjwZxJCd3aIBC1kOE0FjQIRoHUj1vAARUFEpY2uoYyCPU9ky3aqeJKC9r8LYCdwesezSrtlHJ6hNIlsP7XYnRJhWdYM07mkfmo4sE5JtPrX6CLJUsh19vCMGraEWaGcfqmhF1Xa3QAmozop9hX2hph+dwQeED5ODUgHx1kgsBp+AlejUksfnZziVVLbPV0lD+VGfYYMPoMC1tDmt20ITg2X8bFRUQIsq3mzkHtAyXgcSMXikXeIm02kvXMZPHwvYZxVfjSHAoVDC5DgUQL10Eg9jflT5QL0UX43fUAb1kmRtX18I8q/4wgaP/E+/PLwRahJUL7ZjeWgBreFNvAFak2RyYvAJ1Te38lzxaDqVaaIIUNMVX42Atnl4GV/siNPnhTW8+WrxTWDW8NaU4BSoeOsYcBjXL137uX8Lb/J/E28t7xY+5/vwU71u4OUuvEwefws/1dcjfRDicX85ErTfpcnHFV/xeoo3+Iz2e7f/Kx4dtXw5urkS4OHPbYJeXA+nXnb7/eVs6+t9e5ilf10OwuLjfw==);fillColor=none;" vertex="1" parent="1">
          <mxGeometry x="186.81818181818176" y="180.63636363636363" width="119.09090909090908" height="69.09090909090908" as="geometry" />
        </mxCell>
        <mxCell id="UnXfXx3QPJENvj_b73Ka-19" value="" style="shape=stencil(nVjLbttADPwaXYnlPrnnNP2PAHFqo24cOE4ff18ahhwvqUyj3mRpxthdcmYoTenudfvwsplieD0dD983v3aPp+2Uvkwx7p63m+PupFdTup/S3dPhuPl2PLw9P15+vzyckeerH4ef53/4feEFCuFMiuGPufH1At/vnm/gkZKsgBdqvALOgeKa1XCksgpfqdc1u2XKaQ2+kPQV+BQorVlPyiTR4GsHeKE0rofnG4v4HEnG9UQKAvDVnk+kBvDFdVsmbgCfqLQBX6hUgG/EecBrwfPH+Bpsf+qBJYBP9jw7BYR3/aYdniMgdKrjBphJ+GNCU0GOHcGJGJS46YmzJQgiVGqmhwpFUOQmtmgquwqqLE4FLBRAmSXaMnOnDOosicJIUOEIKJwSumnsSBEUTpwyY6IKCid1fnwlFKh9adbrlIDEL078qgakfukUDaFBOfdAPKaB6gHpuTOFZgkCKq0EIyC1TOQAPVErI4EpFkDIVnFKQJ7R1YIMIc5/sUxwJpkSdJnerKb/RRCKvIrQrQlosiAj4+CcWxkNCGKJUaD3LSyqznc+u+2rRj57sAK9z9c6B+qowV375QStzDd4ztjKnEg1hAuyMmc0WbAzOSsreMrwdlzwGNDUrcdNlwxtoDWqo9EUHOyt2OYrOKl9jlaGzdeCbY2Kg7eKbY2Kc1SHB2OWtc1BuUzItjUqjsXqxufGsJf8vKTn1oGm9dRNLzWcckVs8Grt0QiqBBPtOn9kNFPWOQ+uBJxBpdjxRHBCaDOb9hZsx37MFWyuqi+jB8FWWdgOcUpAc6VK3rzJCPZWP9oL9lZP0HEC6WGRgMx4gcBwEF0gRKi47CKrY7vPLrLeE2OZ4CKr43zwr2QaYowILuOUgGbj7CamjhMou1DUIEbDtH8N1ahndEqOcDN+/DdDL96/mjzt9vvLR5fb5/Yri966fKFJ938B);fillColor=none;" vertex="1" parent="1">
          <mxGeometry x="295.90909090909076" y="175.18181818181813" width="12.727272727272727" height="16.363636363636363" as="geometry" />
        </mxCell>
        <mxCell id="UnXfXx3QPJENvj_b73Ka-22" value="" style="shape=stencil(vZjLctswDEW/xlsMSfCFdZr+R2biNJ6mccZJX39feDxkDVi6ibvoTrZ4RAK8vIC04ZvXx7uX7SaF17fD/uv25+7+7XHDnzYp7Z4ft4fdm15t+HbDNw/7w/bLYf/9+f70++XuOPJ49W3/4/iEXycuUAhHKIXf7o/Pp+FPu+d/Hx6JrxmeKWQ3PNb14YWku+GZ14d3kuaG9wLWnqjYxUcqYDWxUrHLSZTj+nidXpIZz3h8oWKzk6kKGC/UxYyvFMHzmX1+GhWQTm4+P5pgkM8cqFWbz0DcAMDUigUiVTRDpWwjiEwBzaArjhbIlEFOS6RgcxoLNTBDYUou6EYRzVCGhifQqYJtK23cnrLTU4OWJNScTiP1vg7USGJjUKUWBGSKNgbVbswAqBQcUOHZrI3EAZ0KAoSKlQYHeBpapGTVzSo+EHRLYwETYIrA7Bp78XEmRjMUb75c4HlQoDuHqSNvy4DedjN0eIBao+ZmkJG3ZaAPT5kmFjAgFKxac4QHSIFql5QTBPosMhPQjQP7oECzG5czBlRLVhq5DMGvASV5AB1RBZr1JfXChmZIxK6YtPeA7vahj71fBrSauRjkPaBZ8ZWZ6GUgU7IxqD03oCUFnPMVjQr4Ui/EVq3q54L2QbfJ2oz6ObKZXkfNn0AlRmqt3oyPBQAc0X5Rpguu0737LqzqEUXS6MR2p7ViFBS0moDrTBL0pS6+oGiJYRSDjJxMANdpBcQeUS0xAcwgmhMX9EzDGpBd0LpIoFaJvii2AE1AAdeAak1C/bPobRuD1iRGS0pDmxPIsOVWoFq1ak0qYB8k+cKuNQmdaVGbcUE3DOhLhgu6wz5ageSClvcA12toxUCtgwLdnriOew2ZpjKBBE1AAbZZUrctSK3Fv5x03JxI9f3S0TzRki6adbW2hJakQnBZarA5Eb0dPYBsRoHksqTSAPVBAdfzqY8gX1KgW3kLbn8WAQHeugDE0RB9FEij6n0ckOti4LH3HwUy7JcWgYycbwno6ExfAirv6/ahYLvv421hAnU41RrAzQMZiW+K+QyABeXi9VijgvVBRh98BqCuUoFs64POGVBaZTzvDEBLiuHik5XgxnWJELioZSIBOS0TqJIuE6iULhNXRn72139F9OLvF8uH3dPT6YPn+X3/hVP/On0d5ds/);fillColor=none;" vertex="1" parent="1">
          <mxGeometry x="539.5454545454545" y="71.5454545454545" width="41.81818181818181" height="80" as="geometry" />
        </mxCell>
        <mxCell id="UnXfXx3QPJENvj_b73Ka-23" value="" style="shape=stencil(tZjbbtswDIafxreEzofrrnuPAk2XYFlTpNnp7afMEBVL7G8Hw+4cmZ8Ti+TPX5nsw/v+6W03GfV+OZ++7n4eni/7yX6ajDm87nfnw6VcTfZxsg8vp/Puy/n0/fV5/vz2dI28Xn07/bg+4dfMKVLqChn1e15Imoz/u/J5jj8eXv8h3lL098RH0m4Zb+qKGJ/Jpj4+6Y/jtSHfvYAlnwEQyOkl4Op3ikDZItsBnnQAgKPrvVsgUDQASKTtEkhkwE+yhlQHZEpgV62nvExDVhQsADKpsAR03TcRcCWteQnwigz4flsLkCMAErnuHbgYRcAriukuwPZ5WAM8uXgXEPvErQGpFvNGIKgh0yvA0EDZkQelEdxQGpxKGfC11BgIpEBphKFFC5BAP4Q4FF+kAFq0ALlLHFeXDKRe93KuXb4R0Iq19n99xdpbj8BK5kYAN/UIrChZyLXWNsp3HNQ4snrKgK61xoCBu1SAtJSNVl4ywM9jQEO9j7ZXsqYLMjBMFG/IgnKNvpc+h0sjBvLLd3BYjWOsP6ACbWTIwDDkLB6jBcjLTLexJwOZwjLThldEoFkXBngbZIC9CAMOtmgrZgZw8TUvwoCG0te8yA2AxDUNVqAZHBlg88JKluGASLGfKDrCWhIB1HFNVBgI0J2kwc5oD/1P81MMOOiwmp+6AVA/ND/FgIVSmQeH1bzvR0A35NaAwdzfD2DlEwD2K9sBpBojkKG7H+MTnD9jfITnk2amWjwSsTzY4gDPV81KbY7vpxuOj/1wY88rxw8u3UENbh6HVb7Kvnx8U8OJ1cL5LwBljICKEABs3DYA5aId2F8Ox+N83r+93x/wy9L854B9/AM=);fillColor=none;" vertex="1" parent="1">
          <mxGeometry x="574.090909090909" y="137.000909090909" width="14.545454545454545" height="14.545454545454545" as="geometry" />
        </mxCell>
        <mxCell id="UnXfXx3QPJENvj_b73Ka-24" value="调用C" style="text;html=1;strokeColor=none;fillColor=none;align=center;verticalAlign=middle;whiteSpace=wrap;rounded=0;" vertex="1" parent="1">
          <mxGeometry x="210" y="239" width="60" height="30" as="geometry" />
        </mxCell>
        <mxCell id="UnXfXx3QPJENvj_b73Ka-25" value="访问E" style="text;html=1;strokeColor=none;fillColor=none;align=center;verticalAlign=middle;whiteSpace=wrap;rounded=0;" vertex="1" parent="1">
          <mxGeometry x="574.09" y="90" width="60" height="30" as="geometry" />
        </mxCell>
      </root>
    </mxGraphModel>
  </diagram>
</mxfile>
